<?xml version="1.0" encoding="UTF-8" standalone="no"?>
<svg
   xmlns:dc="http://purl.org/dc/elements/1.1/"
   xmlns:cc="http://creativecommons.org/ns#"
   xmlns:rdf="http://www.w3.org/1999/02/22-rdf-syntax-ns#"
   xmlns:svg="http://www.w3.org/2000/svg"
   xmlns="http://www.w3.org/2000/svg"
   viewBox="0 0 63.405602 67.516136"
   height="67.516136"
   width="63.405602"
   xml:space="preserve"
   id="svg2"
   version="1.1"><metadata
     id="metadata8"><rdf:RDF><cc:Work
         rdf:about=""><dc:format>image/svg+xml</dc:format><dc:type
           rdf:resource="http://purl.org/dc/dcmitype/StillImage" /></cc:Work></rdf:RDF></metadata><defs
     id="defs6"><clipPath
       id="clipPath14"
       clipPathUnits="userSpaceOnUse"><path
         id="path12"
         d="M -1,-1 H 46.5542 V 49.6371 H -1 Z" /></clipPath><clipPath
       id="clipPath40"
       clipPathUnits="userSpaceOnUse"><path
         style="clip-rule:evenodd"
         id="path38"
         d="M 7.0146,24.4582 C 7.1048,23.862 7.2068,23.277 7.3202,22.7027 9.0958,13.6939 13.7265,7.3755 22.3404,4.811 c 8.6593,2.5625 13.7234,8.6524 15.5962,17.8733 0.1525,0.7503 0.2826,1.5227 0.3932,2.3144 -10.1327,3.1218 -20.5639,3.0192 -31.3152,-0.5405" /></clipPath></defs><g
     clip-path="url(#clipPath14)"
     transform="matrix(1.3333333,0,0,-1.3333333,1.3333333,66.1828)"
     id="g10"><g
       transform="matrix(1.3333333,0,0,-1.3333333,1.3333333,66.1828)"
       id="g16"><g
         transform="scale(0.09151)"
         id="g18"><path
           id="path20"
           style="fill:#3f4096;fill-opacity:1;fill-rule:evenodd;stroke:#91d9f8;stroke-width:7.99989986;stroke-linecap:butt;stroke-linejoin:miter;stroke-miterlimit:2.61312604;stroke-dasharray:none;stroke-opacity:1"
           d="m 6.9046,187.0379 28.0744,-15.0764 1.5582,-32.7518 c 0,0 23.9139,32.2314 40.0311,35.3506 16.1141,3.1195 29.1121,0 29.1121,0 l -19.7538,66.024 C 53.4628,228.5994 33.3465,210.8435 6.9046,187.0379 Z" /></g><g
         transform="scale(-0.09151,0.09151)"
         id="g22"><path
           id="path24"
           style="fill:#3f4096;fill-opacity:1;fill-rule:evenodd;stroke:#91d9f8;stroke-width:7.99989986;stroke-linecap:butt;stroke-linejoin:miter;stroke-miterlimit:2.61312604;stroke-dasharray:none;stroke-opacity:1"
           d="m -490.9076,187.0379 28.0743,-15.0764 1.5579,-32.7518 c 0,0 23.9142,32.2314 40.0315,35.3506 16.1141,3.1195 29.1121,0 29.1121,0 l -19.7541,66.024 c -32.4604,-11.9849 -52.5799,-29.7408 -79.0217,-53.5464 z" /></g><path
         id="path26"
         style="fill:#3f4096;fill-opacity:1;fill-rule:evenodd;stroke:none"
         d="m 4.735,19.0236 c 1.0454,-3.1076 4.7304,-0.9899 3.9367,0.2803 l -1.665,2.664 c 0,0 -2.2241,-2.8017 -2.2717,-2.9443" /><path
         id="path28"
         style="fill:#3f4096;fill-opacity:1;fill-rule:evenodd;stroke:none"
         d="m 40.7738,19.1078 c -0.1083,-0.83 -0.4909,-1.4859 -0.9306,-1.7544 -1.3754,-0.8405 -3.6833,0.7943 -2.9608,1.9505 l 1.6651,2.664 c 0,0 2.1787,-2.7173 2.2263,-2.8601" /><path
         id="path30"
         style="fill:#91d9f8;fill-opacity:1;fill-rule:evenodd;stroke:none"
         d="M 22.6664,48.6371 C 17.8943,44.9575 12.3746,42.2745 5.7628,41.0479 4.0567,21.7817 8.081,7.9157 22.3214,3.6763 36.3739,7.835 41.5389,20.7139 39.3398,40.8178 c -6.6311,1.3799 -12.189,3.9863 -16.6734,7.8193" /><path
         id="path32"
         style="fill:#3f4096;fill-opacity:1;fill-rule:evenodd;stroke:none"
         d="M 7.0146,24.4582 C 7.1048,23.862 7.2068,23.277 7.3202,22.7027 9.0958,13.6939 13.7265,7.3755 22.3404,4.811 c 8.6593,2.5625 13.7234,8.6524 15.5962,17.8733 0.1525,0.7503 0.2826,1.5227 0.3932,2.3144 -10.1327,3.1218 -20.5639,3.0192 -31.3152,-0.5405" /><g
         id="g34"><g
           clip-path="url(#clipPath40)"
           id="g36"><g
             id="g42"><g
               transform="matrix(0.21328,-0.03589,0.07849,0.311,0,0)"
               id="g44"><path
                 id="path46"
                 style="fill:none;stroke:#91d9f8;stroke-width:1.23529994;stroke-linecap:butt;stroke-linejoin:miter;stroke-miterlimit:2.61312604;stroke-dasharray:none;stroke-opacity:1"
                 d="m -5.5848,47.5047 c 35.0677,2.651 70.1314,-4.7461 98.9396,-18.3161" /></g><g
               transform="matrix(0.21328,-0.03589,0.07849,0.311,0,0)"
               id="g48"><path
                 id="path50"
                 style="fill:none;stroke:#91d9f8;stroke-width:1.23529994;stroke-linecap:butt;stroke-linejoin:miter;stroke-miterlimit:2.61312604;stroke-dasharray:none;stroke-opacity:1"
                 d="M -8.2001,41.91 C 26.2794,46.3677 62.4149,40.822 93.3437,28.8034" /></g><g
               transform="matrix(0.21328,-0.03589,0.07849,0.311,0,0)"
               id="g52"><path
                 id="path54"
                 style="fill:none;stroke:#91d9f8;stroke-width:1.23529994;stroke-linecap:butt;stroke-linejoin:miter;stroke-miterlimit:2.61312604;stroke-dasharray:none;stroke-opacity:1"
                 d="m -10.2589,34.3114 c 33.1722,6.8981 70.2803,3.9932 103.7064,-5.7036" /></g><g
               transform="matrix(0.21328,-0.03589,0.07849,0.311,0,0)"
               id="g56"><path
                 id="path58"
                 style="fill:none;stroke:#91d9f8;stroke-width:1.23529994;stroke-linecap:butt;stroke-linejoin:miter;stroke-miterlimit:2.61312604;stroke-dasharray:none;stroke-opacity:1"
                 d="m -0.6168,54.0346 c 35.3812,0.2815 68.612,-9.4122 94.314,-24.8156" /></g><g
               transform="matrix(0.19539,-0.0709,0.10015,0.29228,0,0)"
               id="g60"><path
                 id="path62"
                 style="fill:none;stroke:#91d9f8;stroke-width:1.28579998;stroke-linecap:butt;stroke-linejoin:miter;stroke-miterlimit:2.61312604;stroke-dasharray:none;stroke-opacity:1"
                 d="M -11.6535,63.7693 C 26.356,65.1838 63.1511,56.5705 92.4792,42.016" /></g><g
               transform="matrix(0.17061,-0.09785,0.11686,0.2659,0,0)"
               id="g64"><path
                 id="path66"
                 style="fill:none;stroke:#91d9f8;stroke-width:1.36119998;stroke-linecap:butt;stroke-linejoin:miter;stroke-miterlimit:2.61312604;stroke-dasharray:none;stroke-opacity:1"
                 d="M -27.2018,74.8806 C 15.5849,77.178 57.9747,69.4298 92.5106,55.5718" /></g><g
               transform="matrix(-0.21328,0.03589,0.07849,0.311,0,0)"
               id="g68"><path
                 id="path70"
                 style="fill:none;stroke:#91d9f8;stroke-width:1.23529994;stroke-linecap:butt;stroke-linejoin:miter;stroke-miterlimit:2.61312604;stroke-dasharray:none;stroke-opacity:1"
                 d="m -171.9771,67.9972 c 34.0815,-5.3297 61.0656,-19.8876 77.9454,-38.7306" /></g><g
               transform="matrix(-0.21328,0.03589,0.07849,0.311,0,0)"
               id="g72"><path
                 id="path74"
                 style="fill:none;stroke:#91d9f8;stroke-width:1.23529994;stroke-linecap:butt;stroke-linejoin:miter;stroke-miterlimit:2.61312604;stroke-dasharray:none;stroke-opacity:1"
                 d="m -178.3295,63.4374 c 34.8162,-3.5396 64.0916,-16.6346 84.0157,-34.522" /></g><g
               transform="matrix(-0.21328,0.03589,0.07849,0.311,0,0)"
               id="g76"><path
                 id="path78"
                 style="fill:none;stroke:#91d9f8;stroke-width:1.23529994;stroke-linecap:butt;stroke-linejoin:miter;stroke-miterlimit:2.61312604;stroke-dasharray:none;stroke-opacity:1"
                 d="m -185.5854,56.9137 c 35.3395,-1.0085 67.3727,-11.8933 91.2288,-28.201" /></g><g
               transform="matrix(-0.21328,0.03589,0.07849,0.311,0,0)"
               id="g80"><path
                 id="path82"
                 style="fill:none;stroke:#91d9f8;stroke-width:1.23529994;stroke-linecap:butt;stroke-linejoin:miter;stroke-miterlimit:2.61312604;stroke-dasharray:none;stroke-opacity:1"
                 d="m -162.8036,72.8949 c 32.697,-7.5753 56.3757,-23.8371 69.1064,-43.6759" /></g><g
               transform="matrix(-0.23119,-0.00789,0.0524,0.32225,0,0)"
               id="g84"><path
                 id="path86"
                 style="fill:none;stroke:#91d9f8;stroke-width:1.19589996;stroke-linecap:butt;stroke-linejoin:miter;stroke-miterlimit:2.61312604;stroke-dasharray:none;stroke-opacity:1"
                 d="m -162.1494,56.4313 c 31.305,-6.3125 55.1977,-21.6349 69.3009,-40.9428" /></g><g
               transform="matrix(-0.2372,-0.07437,0.00129,0.31794,0,0)"
               id="g88"><path
                 id="path90"
                 style="fill:none;stroke:#91d9f8;stroke-width:1.18490005;stroke-linecap:butt;stroke-linejoin:miter;stroke-miterlimit:2.61312604;stroke-dasharray:none;stroke-opacity:1"
                 d="m -170.3347,31.1494 c 31.8852,-3.7883 58.4844,-17.0921 76.3977,-35.1205" /></g><g
               transform="matrix(-0.21327,0.06877,0.07859,0.29888,0,0)"
               id="g92"><path
                 id="path94"
                 style="fill:none;stroke:#91d9f8;stroke-width:1.28349996;stroke-linecap:butt;stroke-linejoin:miter;stroke-miterlimit:2.61312604;stroke-dasharray:none;stroke-opacity:1"
                 d="m -181.643,67.566 c 35.339,-1.0148 67.3671,-11.9043 91.2153,-28.2154" /></g><g
               transform="matrix(-0.21328,0.0873,0.07848,0.29208,0,0)"
               id="g96"><path
                 id="path98"
                 style="fill:none;stroke:#91d9f8;stroke-width:1.3003;stroke-linecap:butt;stroke-linejoin:miter;stroke-miterlimit:2.61312604;stroke-dasharray:none;stroke-opacity:1"
                 d="m -179.4643,73.5514 c 35.3396,-1.0086 67.3733,-11.8919 91.2297,-28.1999" /></g><g
               transform="matrix(0.21312,-0.00676,0.07984,0.32191,0,0)"
               id="g100"><path
                 id="path102"
                 style="fill:none;stroke:#91d9f8;stroke-width:1.18060005;stroke-linecap:butt;stroke-linejoin:miter;stroke-miterlimit:2.61312604;stroke-dasharray:none;stroke-opacity:1"
                 d="m -6.9012,24.7476 c 33.1282,6.9639 70.2541,4.1338 103.7418,-5.497" /></g><g
               transform="matrix(0.21281,0.01091,0.08243,0.32914,0,0)"
               id="g104"><path
                 id="path106"
                 style="fill:none;stroke:#91d9f8;stroke-width:1.14209998;stroke-linecap:butt;stroke-linejoin:miter;stroke-miterlimit:2.61312604;stroke-dasharray:none;stroke-opacity:1"
                 d="m -4.8552,18.6625 c 33.0429,7.09 70.2023,4.4013 103.8062,-5.1016" /></g><path
               id="path108"
               style="fill:#91d9f8;fill-opacity:1;fill-rule:evenodd;stroke:none"
               d="M 20.9021,6.5129 H 23.686 V 6.6651 H 41.7594 V 5.7762 H 24.1231 V 5.1344 h -3.24 V 5.7762 H 2.829 v 0.8889 h 18.0731 z" /></g></g></g><path
         id="path110"
         style="fill:#0098db;fill-opacity:1;fill-rule:evenodd;stroke:none"
         d="m 34.7941,31.1 3.9824,2.9577 c -0.0158,0.6928 -0.0439,1.3978 -0.0844,2.1146 l -3e-4,0.0037 -6.0319,-4.4804 c 0.7353,-0.1775 1.4488,-0.3762 2.1342,-0.5956 z m 3.8954,-1.6375 c 0.0513,0.7914 0.0831,1.6018 0.0958,2.4312 l 3e-4,0.0049 -2.035,-1.5115 c 0.69,-0.2851 1.3388,-0.5941 1.9389,-0.9246 z m -14.919,17.4551 c -0.0199,-0.0153 -0.04,-0.0306 -0.0598,-0.0459 L 23.6886,46.855 v -2.5143 l 1.7212,1.2784 C 24.8462,46.0324 24.3,46.4652 23.7705,46.9176 Z M 23.6886,42.1747 V 42.1671 40.119 l 4.7724,3.5447 c -0.5224,0.2909 -1.0327,0.5956 -1.5307,0.9139 l -0.0037,0.0023 z m 0,-4.2216 v -0.0094 -2.1923 l 8.3574,6.2076 c -0.635,0.2551 -1.2552,0.527 -1.861,0.8155 l -0.0031,0.0014 z m 0,-4.3677 v -0.0107 -0.851 c 0.2863,0.0023 0.5734,9e-4 0.8617,-0.0051 0.2849,-0.0057 0.5698,-0.015 0.8541,-0.0269 l 10.6719,7.9265 c -0.7073,0.1905 -1.3995,0.3988 -2.0761,0.6242 l -0.0017,6e-4 z m 6.6877,-1.4195 8.1692,6.0672 c -0.0519,0.6052 -0.1117,1.2186 -0.1797,1.8397 l -0.0816,0.017 -0.0023,6e-4 -10.2302,-7.5986 c 0.7866,-0.0861 1.5635,-0.195 2.3246,-0.3259" /><g
         transform="scale(0.07554)"
         id="g112"><path
           id="path114"
           style="fill:none;stroke:#ffffff;stroke-width:5.25909996;stroke-linecap:butt;stroke-linejoin:miter;stroke-miterlimit:2.61312604;stroke-dasharray:none;stroke-opacity:1"
           d="m 281.8576,294.7961 c -22.9652,-24.166 -23.813,-43.1983 -3.1408,-64.5761 -17.6967,27.7418 -11.8916,41.1231 3.1408,64.5761 z m 13.8277,10.5256 c -22.1732,-23.239 -37.1381,-44.5941 -13.0397,-75.5745 -13.4002,33.9035 34.2598,41.2506 13.0397,75.5745 z m 3.6887,-29.8772 c 1.0993,-7.5237 -2.8857,-9.8802 -8.3605,-16.0642 -2.6716,-3.0169 -5.0734,-5.7974 -6.7283,-10.4692 -5.4558,-15.4188 2.3868,-23.4678 11.0922,-23.9068 8.1769,-0.4091 15.8656,7.1895 17.7041,16.7357 2.0265,10.5256 -8.1241,22.8563 -13.7075,33.7045 z m 2.9081,4.7395 c 15.914,-26.0195 18.4921,-28.2897 6.1313,-54.3617 17.3401,26.466 15.7717,24.8412 -6.1313,54.3617 z" /></g><path
         id="path116"
         style="fill:#ee3338;fill-opacity:1;fill-rule:evenodd;stroke:none"
         d="m 21.2919,22.2693 c -1.7348,-1.8256 -1.7989,-3.2633 -0.2373,-4.8782 -1.3368,2.0957 -0.8983,3.1065 0.2373,4.8782 z m 1.0445,0.7951 c -1.675,-1.7555 -2.8054,-3.3687 -0.985,-5.709 -1.0123,2.5611 2.588,3.1161 0.985,5.709 z m 0.2787,-2.257 c 0.083,-0.5683 -0.218,-0.7463 -0.6316,-1.2135 -0.2018,-0.2279 -0.3832,-0.4379 -0.5082,-0.7908 -0.4122,-1.1648 0.1803,-1.7728 0.8379,-1.806 0.6177,-0.0309 1.1985,0.5431 1.3374,1.2643 0.1531,0.7951 -0.6137,1.7265 -1.0355,2.546 z m 0.2197,0.358 c 1.2021,-1.9655 1.3969,-2.137 0.4632,-4.1065 1.3098,1.9993 1.1914,1.8765 -0.4632,4.1065" /><path
         id="path118"
         style="fill:#ffffff;fill-opacity:1;fill-rule:evenodd;stroke:none"
         d="m 20.454,16.8344 3.7655,-0.0099 C 24.0724,16.3681 23.8311,16.0152 23.3904,15.9854 H 21.293 c -0.3543,0.0584 -0.6174,0.3912 -0.839,0.849 z m 0.8141,-0.9689 h 2.1373 c 0.1375,0 0.25,-0.1077 0.25,-0.2398 v 0 c 0,-0.1315 -0.1125,-0.2395 -0.25,-0.2395 h -2.1373 c -0.1372,0 -0.2498,0.108 -0.2498,0.2395 v 0 c 0,0.1321 0.1126,0.2398 0.2498,0.2398 z m 0.1386,-2.3853 h 1.8604 c 0.1196,0 0.2174,-0.0942 0.2174,-0.209 v 0 c 0,-0.1145 -0.0978,-0.2083 -0.2174,-0.2083 h -1.8604 c -0.1196,0 -0.2174,0.0938 -0.2174,0.2083 v 0 c 0,0.1148 0.0978,0.209 0.2174,0.209 z m -0.0635,1.8561 h 2.0055 l -0.097,-1.715 h -1.8019 z m 0.1066,-2.3253 h 1.7923 l -0.0867,-1.8025 h -1.6107 z m 0.106,-1.8898 h 1.5622 c 0.1003,0 0.1822,-0.0788 0.1822,-0.1752 v 0 c 0,-0.0964 -0.0819,-0.1752 -0.1822,-0.1752 h -1.5622 c -0.1004,0 -0.1823,0.0788 -0.1823,0.1752 v 0 c 0,0.0964 0.0819,0.1752 0.1823,0.1752 z m -0.0094,-0.4357 h 1.5988 L 23.0681,9.4839 h -1.4366 z m 0.0958,-1.2697 h 1.3893 c 0.0893,0 0.1621,-0.07 0.1621,-0.1556 v 0 c 0,-0.0859 -0.0728,-0.1559 -0.1621,-0.1559 h -1.3893 c -0.0893,0 -0.1624,0.07 -0.1624,0.1559 v 0 c 0,0.0856 0.0731,0.1556 0.1624,0.1556 z m 0.1299,-0.4067 h 1.1477 L 22.8654,7.6184 H 23.04 V 7.2848 H 22.9365 C 22.8855,7.1271 22.7724,6.997 22.6261,6.9233 V 6.4505 h -0.5405 v 0.466 C 21.9328,6.9891 21.8146,7.122 21.7619,7.2848 H 21.672 v 0.3336 h 0.1602 z" /><g
         transform="scale(0.09151)"
         id="g120"><path
           id="path122"
           style="fill:#3f4096;fill-opacity:1;fill-rule:evenodd;stroke:#91d9f8;stroke-width:7.99989986;stroke-linecap:butt;stroke-linejoin:miter;stroke-miterlimit:2.61312604;stroke-dasharray:none;stroke-opacity:1"
           d="m 445.0124,282.3347 c 12.905,-15.2311 10.1543,-52.5271 -6.8119,-83.1322 -50.9751,89.6745 -329.6888,97.3102 -378.722,1.5579 -6.9296,6.9142 -11.9106,21.8265 -14.8068,39.1796 -1.9794,11.8704 -4.9223,24.8868 0.8269,37.262 4.7024,10.1168 16.1328,19.2365 31.5034,27.2347 32.7178,17.028 102.9575,41.6174 179.1916,40.0717 79.6969,-1.6172 157.619,-25.3486 188.8188,-62.1737 z" /></g><path
         id="path124"
         style="fill:#ffffff;fill-opacity:1;fill-rule:nonzero;stroke:none"
         d="M 8.2389,23.4825 8.7378,23.7149 8.3285,24.5928 9.4102,25.0974 9.1987,25.5506 8.117,25.0464 7.8919,25.5291 9.1196,26.1014 8.9082,26.555 7.1816,25.7499 Z m 1.9247,0.8592 1.7099,0.5556 -0.1548,0.4759 -1.186,-0.3855 -0.6185,1.9034 -0.5236,-0.17 z m 2.8973,0.866 c 0.7458,0.1998 1.137,0.9076 0.9527,1.5947 l -0.0017,0.0068 c -0.1842,0.6871 -0.8682,1.0996 -1.614,0.8997 -0.7455,-0.1998 -1.1367,-0.9079 -0.9527,-1.5947 l 0.0019,-0.0071 c 0.184,-0.6868 0.8683,-1.0993 1.6138,-0.8994 z m -0.1244,0.4918 c -0.4281,-0.1146 -0.8246,0.1491 -0.9355,0.5635 l -0.0019,0.0068 c -0.1109,0.4144 0.0955,0.8322 0.5235,0.9471 0.428,0.1148 0.8243,-0.1492 0.9354,-0.5636 l 0.0017,-0.0068 c 0.1112,-0.4141 -0.0952,-0.8322 -0.5232,-0.947 z m 1.6225,-0.0808 0.5437,0.0859 -0.1253,0.7908 0.4272,0.0675 0.6548,-0.7067 0.6355,0.1007 -0.7435,0.7868 c 0.2959,0.1662 0.4714,0.4513 0.4082,0.8499 l -0.0011,0.0073 c -0.0369,0.2331 -0.1418,0.4153 -0.3014,0.5313 -0.1882,0.1366 -0.4456,0.1862 -0.7597,0.1363 l -1.1298,-0.1789 z m 0.3424,1.3569 -0.1125,0.7095 0.5403,0.0856 c 0.2648,0.042 0.4462,-0.0524 0.483,-0.2854 l 0.0012,-0.0068 c 0.0328,-0.2084 -0.0964,-0.3739 -0.3612,-0.4159 z m 1.9537,-0.949 1.8978,0.1661 -0.0425,0.4876 -1.3533,-0.1183 -0.0456,0.5236 1.1749,0.1026 -0.0428,0.4879 -1.1749,-0.1029 -0.0443,0.5057 1.3354,0.117 -0.0428,0.4876 -1.8799,-0.1644 z m 2.141,0.1987 0.5431,0.019 -0.0555,1.5894 1.2665,-1.5472 0.468,0.0165 -0.0873,2.5001 -0.5432,-0.019 0.0536,-1.5392 -1.2251,1.4984 -0.5074,-0.0176 z m 3.7409,0.0283 c 0.4821,-0.0082 0.7713,0.1582 1.0335,0.4289 l -0.3444,0.3597 c -0.1993,-0.1749 -0.3765,-0.2865 -0.6625,-0.2814 -0.4289,0.0073 -0.7194,0.3699 -0.7118,0.7988 v 0.007 c 0.0074,0.4289 0.3175,0.7739 0.7393,0.7665 0.25,-0.0042 0.4448,-0.1148 0.6347,-0.2934 l 0.3574,0.3977 c -0.2284,0.2328 -0.5079,0.3952 -0.9796,0.4034 -0.7685,0.0133 -1.3147,-0.5601 -1.3272,-1.271 l -3e-4,-0.0071 c -0.0124,-0.7183 0.5244,-1.296 1.2609,-1.3091 z m 1.2112,-0.0187 1.9024,-0.0998 0.0257,0.4887 -1.3566,0.0712 0.0275,0.525 1.1781,-0.0618 0.0255,0.4889 -1.1778,0.0616 0.0263,0.5071 1.3388,-0.0703 0.0256,0.489 -1.8848,0.0986 z m 4.3603,-0.4714 c 0.4765,-0.0754 0.786,0.0494 1.0831,0.2809 l -0.2906,0.4043 c -0.2219,-0.1457 -0.413,-0.2316 -0.6953,-0.1868 -0.4238,0.0671 -0.661,0.4665 -0.5939,0.8903 l 0.0012,0.0068 c 0.0672,0.4238 0.4221,0.7223 0.8387,0.6562 0.2472,-0.0391 0.4244,-0.1757 0.5877,-0.3789 l 0.4093,0.3441 c -0.1939,0.2625 -0.4482,0.462 -0.9139,0.5357 -0.7591,0.1202 -1.3799,-0.3716 -1.4913,-1.074 L 27.2424,27.235 c -0.1123,-0.7092 0.3387,-1.3561 1.0661,-1.4715 z m 2.3077,-0.4515 c 0.7579,-0.1474 1.4198,0.3174 1.5553,1.0153 l 0.0014,0.0071 c 0.1358,0.6985 -0.2982,1.3689 -1.0561,1.5163 -0.7577,0.1474 -1.4196,-0.3178 -1.5554,-1.016 L 29.56,26.8279 c -0.1358,-0.6981 0.2985,-1.3688 1.0562,-1.5159 z m 0.1037,0.4966 c -0.4348,0.0845 -0.6755,0.4955 -0.5939,0.9164 l 0.0015,0.0071 c 0.0819,0.421 0.4507,0.7061 0.8855,0.6217 0.4351,-0.0848 0.6755,-0.4955 0.5939,-0.9165 L 31.6054,26.4302 C 31.5235,26.0093 31.155,25.7241 30.7199,25.8086 Z m 2.41,-1.1458 c 0.6458,-0.1854 1.1574,0.055 1.366,0.7832 l 0.3892,1.357 -0.5292,0.1519 -0.3949,-1.3779 c -0.1094,-0.3813 -0.3614,-0.5207 -0.6842,-0.4283 -0.3229,0.0927 -0.4607,0.3515 -0.3484,0.7432 l 0.39,1.3604 -0.5292,0.1519 -0.394,-1.3742 c -0.203,-0.7078 0.0887,-1.1821 0.7347,-1.3672 z m 1.3397,-0.4141 0.5139,-0.197 0.2869,0.7472 0.4036,-0.1551 0.2137,-0.9394 0.6007,-0.2307 -0.2506,1.0534 c 0.3393,-0.004 0.6339,0.155 0.7787,0.5317 l 0.0026,0.0071 c 0.0844,0.22 0.0847,0.4303 0.0045,0.6106 -0.0947,0.2123 -0.2928,0.3841 -0.5896,0.4981 l -1.0678,0.4098 z m 0.9748,1.004 0.2577,0.671 0.5105,-0.1962 c 0.2503,-0.0961 0.3603,-0.2684 0.2755,-0.4887 l -0.0025,-0.0065 c -0.0754,-0.197 -0.2702,-0.2755 -0.5205,-0.1794 z m 1.7181,-2.1194 0.4904,-0.2498 0.9054,1.7771 0.6783,-0.3459 0.2305,0.4522 -1.8471,0.9411 -0.2302,-0.4522 0.6781,-0.3455 z" /><path
         id="path126"
         style="fill:#0098db;fill-opacity:1;fill-rule:evenodd;stroke:none"
         d="m 15.4052,32.9403 c 0,0 -0.0448,0.7968 -1.5123,1.2155 -1.4678,0.4187 -1.6988,0.7659 -1.6988,0.7659 -0.097,0.4759 0.2866,0.5873 0.5655,0.6075 l -1.3337,2.6858 c -0.0561,-0.0145 -0.1151,-0.0301 -0.1766,-0.0473 l 0.4198,-0.8224 c 0.0403,-0.0791 -0.0048,-0.1803 -0.1029,-0.2302 l -0.0295,-0.015 c -0.0331,-0.017 -0.0694,-0.0261 -0.1046,-0.0261 -0.064,0 -0.1168,0.0292 -0.1417,0.0783 l -0.4572,0.8963 C 9.2716,37.6047 8.9887,37.6016 7.799,37.3357 6.6898,37.0877 5.7977,37.1483 5.5933,37.167 v -2.8856 c 0.5417,8e-4 1.1702,-0.2464 1.1702,-0.2464 1.5945,-0.7823 4.2913,-0.5884 3.8443,-0.7152 -0.447,-0.1264 -0.5887,-0.231 -0.544,-0.7001 0.0448,-0.4694 1.1475,-0.2013 1.1475,-0.2013 0,0 -0.0448,-0.1788 0.1488,-0.5587 0.1936,-0.3801 1.5645,0.5213 1.5645,0.5213 0,0 -0.1936,-0.6035 0.3948,-0.6403 0.5888,-0.0375 0.5587,0.5811 0.6928,0.5884 0.1341,0.0077 0.4547,-0.0448 0.4547,-0.0448 1.2365,-0.2006 0.9383,0.656 0.9383,0.656" /><path
         id="path128"
         style="fill:#0098db;fill-opacity:1;fill-rule:evenodd;stroke:none"
         d="m 15.7107,33.2977 c 0.1194,0.5811 -0.015,0.8791 -0.3129,1.8922 -0.2982,1.0133 -0.7004,1.222 -1.7135,2.0264 -0.6747,0.5358 -0.7555,1.0049 -1.279,1.1007 l 1.6401,-3.3536 c 0.0938,-0.1344 0.1553,-0.2733 0.1936,-0.3957 l 0.2115,-0.432 c 0.4039,-0.1908 0.5451,-0.3538 0.5451,-0.3538 1.2367,-1.2368 0.1604,-1.546 0.1604,-1.546 0.8527,-0.093 0.5547,1.0618 0.5547,1.0618" /><path
         id="path130"
         style="fill:#0098db;fill-opacity:1;fill-rule:evenodd;stroke:none"
         d="m 12.9603,35.5311 0.485,-0.9768 0.7183,-0.2435 -0.4901,1.0024 -1.4783,3.022 -0.254,0.519 -0.5006,-0.2625 0.1656,-0.3333 z" /><path
         id="path132"
         style="fill:#0098db;fill-opacity:1;fill-rule:evenodd;stroke:none"
         d="m 11.3924,38.6884 0.5015,0.263 0.0802,0.042 0.0797,0.0419 0.0164,0.0085 c -0.0592,0.1117 -0.1239,0.2294 -0.1916,0.3498 -0.0363,0.0641 -0.0734,0.1293 -0.1114,0.1951 -0.5273,0.9127 -1.2209,1.9516 -1.6214,2.3544 L 9.9193,41.8243 c 0.0955,-0.5133 0.4924,-1.5363 0.9062,-2.438 l -0.0482,-0.0255 -0.0479,-0.025 -0.0601,-0.0315 0.1471,-0.2888 0.0505,0.0266 0.0479,0.025 0.0479,0.0252 c 0.0839,-0.1757 0.1673,-0.3444 0.2478,-0.4994 l 0.0218,0.0116 0.0799,0.0419 z" /><path
         id="path134"
         style="fill:#0098db;fill-opacity:1;fill-rule:evenodd;stroke:none"
         d="m 10.4457,39.5461 c -0.0097,0.0188 -0.0329,0.0295 -0.0624,0.0295 -0.0213,0 -0.0434,-0.0054 -0.0641,-0.0161 l -0.0294,-0.0151 c -0.0321,-0.0164 -0.0562,-0.0422 -0.0649,-0.0694 -0.0037,-0.0105 -0.006,-0.0261 0.0014,-0.0403 l 0.6942,-1.3606 0.4495,-0.8813 c 0.0156,-0.0314 0.0763,-0.0385 0.1262,-0.0127 l 0.0298,0.015 c 0.051,0.0263 0.0802,0.0765 0.0632,0.1097 l -0.4275,0.8385 z" /><path
         id="path136"
         style="fill:#0098db;fill-opacity:1;fill-rule:evenodd;stroke:none"
         d="m 15.2002,31.479 c 0.0933,0.1585 -0.0601,0.6599 -0.0601,0.6599 -0.3682,-0.049 -0.6817,-0.0082 -0.6817,-0.0082 0.2942,-0.5578 0.4796,-0.7004 0.5834,-0.7234 l 0.0014,-0.0025 c 0.0198,-0.0437 0.1326,-0.1971 0.1763,-0.1772 0.0436,0.0198 0.0017,0.2058 -0.0181,0.2494 z" /><path
         id="path138"
         style="fill:#3f4096;fill-opacity:1;fill-rule:nonzero;stroke:none"
         d="m 39.7332,11.6351 -1.9341,0.9312 0.6903,1.4337 0.3274,-0.1576 -0.5023,-1.0434 0.4286,-0.2064 0.4674,0.9709 0.3257,-0.1568 -0.4674,-0.9708 0.5264,-0.2534 0.5201,1.0802 0.326,-0.1567 z m -13.5927,-11.522 -0.8484,1.9718 1.4619,0.629 0.1434,-0.3336 -1.0636,-0.4578 0.188,-0.4369 0.9898,0.4258 0.1429,-0.3319 -0.9899,-0.4261 0.2311,-0.5366 1.1012,0.474 0.1432,-0.3322 z m 1.6198,0.707 0.1618,1.3291 -1.0508,0.6259 0.4541,0.2242 0.6917,-0.4274 0.0723,0.8047 0.4507,0.2225 L 28.4029,2.3689 29.5495,1.7039 29.0809,1.4723 28.3255,1.927 28.2263,1.0502 Z m 2.7138,2.4159 0.4241,0.1194 C 30.973,3.1241 30.979,2.92 30.9161,2.7425 30.8534,2.5656 30.7256,2.4134 30.5331,2.287 30.2947,2.1305 30.0455,2.0835 29.7853,2.145 29.5251,2.2076 29.302,2.38 29.1169,2.6617 c -0.1961,0.2988 -0.2713,0.5814 -0.2256,0.8482 0.0459,0.2661 0.1941,0.4818 0.4456,0.6471 0.2194,0.1437 0.4402,0.1964 0.6627,0.1562 0.1321,-0.0224 0.2653,-0.093 0.4008,-0.2098 L 30.0974,3.7823 C 30.0158,3.8616 29.9231,3.9064 29.8199,3.9158 29.7173,3.9254 29.6181,3.8985 29.522,3.8353 29.3888,3.748 29.3119,3.6292 29.2921,3.4795 c -0.0201,-0.1499 0.04,-0.3316 0.1803,-0.5454 0.1491,-0.227 0.2956,-0.3619 0.4408,-0.4042 0.1445,-0.0431 0.2823,-0.0215 0.4127,0.0644 0.0964,0.0632 0.1593,0.1479 0.1882,0.2548 0.0292,0.1066 0.0159,0.2358 -0.04,0.3869 z M 31.606,2.9832 30.3661,4.7353 31.665,5.6548 31.875,5.358 30.9297,4.6894 31.2043,4.301 l 0.8796,0.6225 0.209,-0.2951 -0.8796,-0.6225 0.3376,-0.4768 0.9785,0.6928 0.2092,-0.2956 z m 1.6257,1.1647 -1.3482,1.6478 0.3354,0.2747 1.1188,-1.368 0.8342,0.6823 0.2291,-0.2801 z m 1.417,1.1498 -1.4598,1.5497 0.3152,0.297 1.2118,-1.2863 0.7844,0.739 0.2483,-0.2637 z m 1.3108,1.2588 -1.6025,1.4284 1.0591,1.188 0.271,-0.2415 -0.7705,-0.8648 0.3552,-0.3164 0.7169,0.8042 0.2698,-0.2404 -0.7169,-0.8042 0.436,-0.3889 0.798,0.8952 0.2701,-0.241 z m 1.3575,1.4831 -1.743,1.2532 0.2463,0.3424 1.6764,-0.1233 -1.1636,0.8365 0.2352,0.3274 1.7428,-1.2532 -0.254,-0.3534 -1.6415,0.1148 1.1364,-0.8173 z m 1.3235,3.3205 0.3339,0.2872 c 0.1655,-0.178 0.2571,-0.3603 0.2752,-0.548 0.0182,-0.1865 -0.0337,-0.3787 -0.1547,-0.5745 -0.1497,-0.2424 -0.3558,-0.3904 -0.6174,-0.4445 -0.2622,-0.0533 -0.5375,0.0082 -0.8243,0.1857 -0.3042,0.1879 -0.4916,0.4124 -0.5627,0.6732 -0.0714,0.2608 -0.0281,0.5187 0.1301,0.775 0.138,0.2231 0.3161,0.3639 0.5346,0.4218 0.1293,0.0351 0.2798,0.0277 0.4519,-0.021 l -0.1387,-0.419 c -0.1077,0.0374 -0.2106,0.0386 -0.3081,0.0034 -0.0969,-0.0343 -0.1757,-0.1009 -0.2361,-0.1987 -0.0836,-0.1352 -0.1029,-0.2752 -0.0578,-0.4195 0.045,-0.1446 0.1763,-0.2838 0.394,-0.4181 0.231,-0.1429 0.4209,-0.203 0.57,-0.1803 0.1497,0.0224 0.2651,0.1003 0.347,0.233 0.0606,0.0981 0.0819,0.2016 0.0629,0.3107 -0.0184,0.1088 -0.0853,0.2202 -0.1998,0.3336" /><path
         id="path140"
         style="fill:#3f4096;fill-opacity:1;fill-rule:nonzero;stroke:none"
         d="M 20.8704,0.085 21.0609,1.8581 20.4282,1.9264 20.467,2.2876 22.1632,2.1053 22.1244,1.7436 21.4929,1.8119 21.3015,0.0386 Z m 1.8277,0.9672 c 0.0244,-0.2412 0.0998,-0.4192 0.224,-0.5326 0.1247,-0.1128 0.2724,-0.161 0.4453,-0.1426 0.1712,0.0173 0.3059,0.0933 0.4037,0.2288 0.0969,0.1355 0.1332,0.3259 0.108,0.5731 C 23.8535,1.4241 23.7815,1.6007 23.6622,1.711 23.5423,1.8204 23.3932,1.866 23.216,1.8479 23.038,1.8295 22.9014,1.7535 22.8047,1.6203 22.7086,1.4879 22.6729,1.2988 22.6981,1.0522 Z M 22.2559,0.9924 c -0.0221,0.218 -0.009,0.4039 0.0411,0.5584 0.0377,0.1134 0.0939,0.2183 0.1687,0.3127 0.0751,0.0947 0.1604,0.1687 0.2563,0.2202 0.1278,0.0703 0.2783,0.1137 0.4521,0.1319 C 23.4884,2.2479 23.7504,2.1762 23.959,2.0004 24.1685,1.8244 24.2904,1.563 24.3261,1.2152 24.3609,0.8697 24.2952,0.5907 24.1271,0.377 23.9598,0.1633 23.7192,0.0403 23.406,0.0077 23.0882,-0.0241 22.826,0.0465 22.6185,0.2208 22.411,0.3957 22.2905,0.6531 22.2559,0.9924" /><path
         id="path142"
         style="fill:#3f4096;fill-opacity:1;fill-rule:nonzero;stroke:none"
         d="M 17.466,2.9081 16.8653,1.62 17.1584,1.4834 C 17.2681,1.4321 17.35,1.4012 17.405,1.391 c 0.0709,-0.0139 0.1361,-0.0119 0.1959,0.0068 0.0601,0.0184 0.1233,0.0654 0.1908,0.1397 0.0666,0.0748 0.1357,0.1877 0.2057,0.3379 0.0703,0.1505 0.1103,0.2721 0.1219,0.3648 0.0105,0.0933 0.0029,0.1735 -0.0238,0.2404 -0.0269,0.0677 -0.0734,0.1264 -0.1394,0.1763 -0.0488,0.0383 -0.1537,0.0944 -0.3138,0.1692 z M 17.227,3.4206 17.9447,3.0858 C 18.1066,3.0104 18.2242,2.9407 18.2979,2.876 18.396,2.7893 18.466,2.6841 18.5068,2.56 18.5485,2.4364 18.5618,2.3023 18.5462,2.1583 18.5304,2.0143 18.4802,1.851 18.3951,1.6685 18.3209,1.5089 18.2364,1.3799 18.1423,1.2827 18.0281,1.1639 17.905,1.0817 17.7738,1.0363 17.6749,1.0015 17.5589,0.9927 17.4257,1.0097 17.3262,1.0222 17.204,1.063 17.0583,1.1307 L 16.3196,1.4751 Z M 14.578,2.4704 15.7156,4.2908 17.0651,3.4478 16.8724,3.1397 15.8905,3.7531 15.6382,3.3497 16.5521,2.7785 16.3607,2.4721 15.4468,3.0433 15.1373,2.5478 16.1541,1.9125 15.9625,1.6055 Z m -1.1358,0.7135 0.9972,1.4782 -0.5278,0.3564 0.203,0.301 1.4142,-0.9539 -0.203,-0.301 -0.5267,0.3549 -0.9969,-1.478 z M 12.9521,4.6145 13.2375,5.4147 12.5033,4.991 Z M 13.0178,3.4509 12.6564,3.7542 12.8262,4.2483 12.1689,4.7999 11.7198,4.54 11.3675,4.8353 13.3877,5.9423 13.739,5.6477 Z m -1.523,2.346 0.2097,-0.3875 C 11.4953,5.2855 11.2978,5.235 11.1107,5.2571 10.9244,5.2792 10.7476,5.3705 10.582,5.5304 c -0.2049,0.1979 -0.3058,0.4309 -0.3027,0.6985 0.0034,0.2673 0.1224,0.5229 0.3569,0.7653 0.248,0.2571 0.5074,0.3926 0.7772,0.4068 0.2702,0.0141 0.5131,-0.0831 0.7297,-0.292 0.1885,-0.1823 0.2882,-0.3864 0.2982,-0.6123 0.007,-0.1338 -0.0324,-0.2792 -0.1165,-0.4371 l -0.3802,0.2248 c 0.0598,0.0972 0.0828,0.1973 0.0692,0.2999 -0.013,0.1026 -0.0612,0.1936 -0.144,0.2733 C 11.7556,6.9681 11.6229,7.0169 11.4724,7.0033 11.3216,6.9902 11.1574,6.8916 10.98,6.7076 10.7915,6.5123 10.692,6.3394 10.6826,6.1886 10.6724,6.0381 10.7237,5.9085 10.8363,5.8003 10.9191,5.72 11.0154,5.6772 11.1263,5.6724 11.2368,5.6676 11.3598,5.709 11.4948,5.7969 Z m -2.0892,1.0153 1.5951,1.4363 0.29,-0.322 -1.5954,-1.436 z M 9.718,9.2594 8.598,8.3843 8.797,8.1295 C 8.8716,8.0342 8.9306,7.9693 8.9748,7.9353 9.0315,7.8908 9.091,7.863 9.1525,7.8523 9.2143,7.8418 9.292,7.8548 9.3858,7.8905 9.4793,7.9268 9.5922,7.996 9.7228,8.098 9.8535,8.2003 9.9445,8.2902 9.9967,8.3676 10.0485,8.4458 10.078,8.5209 10.0848,8.5927 10.0916,8.6652 10.0766,8.7386 10.0406,8.8132 10.0142,8.8696 9.9465,8.9668 9.8379,9.1063 Z M 9.7376,9.8246 10.2254,9.2004 C 10.3351,9.0595 10.4085,8.9442 10.4445,8.8534 10.4927,8.7313 10.5075,8.6057 10.4873,8.4767 10.4683,8.3475 10.4193,8.2222 10.3402,8.1009 10.2603,7.9798 10.1421,7.8571 9.9833,7.7329 9.8444,7.6246 9.7106,7.5481 9.5828,7.5039 9.4269,7.45 9.2801,7.4324 9.1426,7.4517 9.0386,7.4659 8.9311,7.5107 8.8203,7.5864 8.7372,7.6428 8.6468,7.7343 8.5479,7.8608 L 8.0461,8.5031 Z M 6.9041,10.1421 8.6837,11.3426 9.5734,10.023 9.2724,9.8201 8.6247,10.7802 8.2301,10.514 8.8328,9.6205 8.5331,9.4187 7.9305,10.3119 7.4463,9.9853 8.117,8.9909 7.8168,8.7888 Z m 0.661,2.3686 -1.2308,-0.7106 0.1616,-0.2798 c 0.0604,-0.1049 0.11,-0.1775 0.1491,-0.2172 0.0501,-0.0521 0.1049,-0.0878 0.1644,-0.1071 0.0595,-0.019 0.1383,-0.017 0.2364,0.0057 0.0975,0.0226 0.2188,0.0754 0.3625,0.1584 0.1435,0.0828 0.2461,0.1596 0.3087,0.2291 0.0624,0.07 0.1018,0.1403 0.1185,0.2103 0.017,0.0709 0.0122,0.1457 -0.013,0.2245 -0.0182,0.0595 -0.0714,0.1653 -0.1599,0.3183 z m 0.0981,0.557 0.396,-0.686 C 8.1485,12.227 8.2049,12.1028 8.2281,12.0076 8.2587,11.88 8.2556,11.7536 8.2182,11.6286 8.1814,11.5036 8.1153,11.3862 8.0203,11.2771 7.9243,11.1682 7.7899,11.0633 7.6153,10.9624 7.4628,10.8746 7.3196,10.8173 7.187,10.7912 7.0251,10.7597 6.8771,10.7629 6.7439,10.8009 c -0.1012,0.0283 -0.2013,0.0875 -0.3008,0.178 -0.0742,0.0674 -0.151,0.1706 -0.2313,0.3098 l -0.4076,0.7058 z" /></g></g></svg>